<svg version="1.1" xmlns="http://www.w3.org/2000/svg" style="display: none">
    <defs>

        <symbol id="icon-system-check" viewBox="0 0 16 16" fill="none">
            <path d="M2.25 8L5.01193 11.5511C5.39578 12.0446 6.13331 12.0688 6.54869 11.6015L13.75 3.5" stroke="#4F46E5" stroke-width="1.5"/>
        </symbol>

        <symbol id="icon-file" viewBox="0 0 16 16" fill="none">
            <path d="M9.33268 1.51318V4.26688C9.33268 4.64025 9.33268 4.82693 9.40534 4.96954C9.46926 5.09498 9.57125 5.19697 9.69669 5.26088C9.8393 5.33354 10.026 5.33354 10.3993 5.33354H13.153M10.666 8.66683H5.33268M10.666 11.3335H5.33268M6.66602 6.00016H5.33268M9.33268 1.3335H5.86602C4.74591 1.3335 4.18586 1.3335 3.75803 1.55148C3.38171 1.74323 3.07575 2.04919 2.884 2.42552C2.66602 2.85334 2.66602 3.41339 2.66602 4.5335V11.4668C2.66602 12.5869 2.66602 13.147 2.884 13.5748C3.07575 13.9511 3.38171 14.2571 3.75803 14.4488C4.18586 14.6668 4.74591 14.6668 5.86602 14.6668H10.1327C11.2528 14.6668 11.8128 14.6668 12.2407 14.4488C12.617 14.2571 12.9229 13.9511 13.1147 13.5748C13.3327 13.147 13.3327 12.5869 13.3327 11.4668V5.3335L9.33268 1.3335Z" stroke="#030712" stroke-width="1.2" stroke-linecap="round" stroke-linejoin="round"/>
        </symbol>

        <symbol id="icon-delete" viewBox="0 0 20 20" fill="none">
            <path d="M14.1654 5.83398L5.83203 14.1673M5.83203 5.83398L14.1654 14.1673" stroke="#030712" stroke-width="1.66667" stroke-linecap="round" stroke-linejoin="round"/>
        </symbol>

        <symbol id="icon-plus" width="236" height="122" viewBox="0 0 236 122" fill="none">
            <rect x="1" y="1" width="234" height="120" rx="20" stroke="#9CA3AF" stroke-linecap="round" stroke-dasharray="8 8"/>
            <path d="M118 54V68M111 61H125" stroke="#9CA3AF" stroke-width="1.8" stroke-linecap="round" stroke-linejoin="round"/>
        </symbol>



    </defs>
</svg>
